<svg width="2469" height="1464" xmlns="http://www.w3.org/2000/svg" xmlns:xlink="http://www.w3.org/1999/xlink" xml:space="preserve" overflow="hidden"><defs><clipPath id="clip0"><rect x="771" y="498" width="2469" height="1464"/></clipPath></defs><g clip-path="url(#clip0)" transform="translate(-771 -498)"><rect x="771" y="498" width="2469" height="1464" fill="#FFFFFF"/><path d="M0 0 1964.36 0.000360892" stroke="#000000" stroke-width="10.3125" stroke-miterlimit="8" fill="none" fill-rule="evenodd" transform="matrix(-1 0 0 1 2972.36 1611)"/><path d="M1308 984 1308 1598.11" stroke="#FFC000" stroke-width="13.75" stroke-miterlimit="8" fill="none" fill-rule="evenodd"/><path d="M2237 984 2237 1598.11" stroke="#FFC000" stroke-width="13.75" stroke-miterlimit="8" fill="none" fill-rule="evenodd"/><path d="M1308 984 2237.45 984.001" stroke="#FFC000" stroke-width="13.75" stroke-miterlimit="8" fill="none" fill-rule="evenodd"/><path d="M0 0 108.469 216.887" stroke="#70AD47" stroke-width="13.75" stroke-miterlimit="8" fill="none" fill-rule="evenodd" transform="matrix(1 0 0 -1 1155 1597.89)"/><path d="M1263 1381 2266.48 1381" stroke="#70AD47" stroke-width="13.75" stroke-miterlimit="8" fill="none" fill-rule="evenodd"/><path d="M0 0 278.832 675.752" stroke="#70AD47" stroke-width="13.75" stroke-miterlimit="8" fill="none" fill-rule="evenodd" transform="matrix(1 0 0 -1 2267 1380.75)"/><path d="M2546 705 2792.04 705" stroke="#70AD47" stroke-width="13.75" stroke-miterlimit="8" fill="none" fill-rule="evenodd"/><path d="M2792 705 2915.32 1597.64" stroke="#70AD47" stroke-width="13.75" stroke-miterlimit="8" fill="none" fill-rule="evenodd"/><text font-family="Century Schoolbook,Century Schoolbook_MSFontService,sans-serif" font-weight="400" font-size="83" transform="matrix(1 0 0 1 2578.81 1710)">Cycle time (s)</text><path d="M907 1251 1630.69 1251" stroke="#FF0000" stroke-width="13.75" stroke-miterlimit="8" fill="none" fill-rule="evenodd"/><path d="M1631 1255 1631 1594.84" stroke="#FF0000" stroke-width="13.75" stroke-miterlimit="8" fill="none" fill-rule="evenodd"/><path d="M1628 1591 2911.68 1591" stroke="#FF0000" stroke-width="13.75" stroke-miterlimit="8" fill="none" fill-rule="evenodd"/><path d="M1585 1238.99 1620.52 1238.99 1631.5 1205 1642.48 1238.99 1678 1238.99 1649.26 1260 1660.24 1294 1631.5 1272.99 1602.76 1294 1613.74 1260Z" stroke="#C00000" stroke-width="10.3125" stroke-miterlimit="8" fill="#FF0000" fill-rule="evenodd"/><path d="M909 1238 1110.95 1238" stroke="#4472C4" stroke-width="13.75" stroke-miterlimit="8" fill="none" fill-rule="evenodd"/><path d="M1111 1241 1111 1574.68" stroke="#4472C4" stroke-width="13.75" stroke-miterlimit="8" fill="none" fill-rule="evenodd"/><path d="M1108 1572 2915.21 1577.46" stroke="#4472C4" stroke-width="13.75" stroke-miterlimit="8" fill="none" fill-rule="evenodd"/><path d="M1061 1230.99 1096.52 1230.99 1107.5 1197 1118.48 1230.99 1154 1230.99 1125.26 1252 1136.24 1286 1107.5 1264.99 1078.76 1286 1089.74 1252Z" stroke="#2F528F" stroke-width="10.3125" stroke-miterlimit="8" fill="#4472C4" fill-rule="evenodd"/><text fill="#4472C4" font-family="Century Schoolbook,Century Schoolbook_MSFontService,sans-serif" font-weight="400" font-size="83" transform="matrix(1 0 0 1 958.684 1710)">-</text><text fill="#4472C4" font-family="Century Schoolbook,Century Schoolbook_MSFontService,sans-serif" font-weight="400" font-size="83" transform="matrix(1 0 0 1 986.184 1710)">200 </text><text fill="#4472C4" font-family="Century Schoolbook,Century Schoolbook_MSFontService,sans-serif" font-weight="400" font-size="83" transform="matrix(1 0 0 1 1146.6 1710)">ms</text><text fill="#C00000" font-family="Century Schoolbook,Century Schoolbook_MSFontService,sans-serif" font-weight="400" font-size="83" transform="matrix(1 0 0 1 1483.88 1710)">+1000 </text><text fill="#C00000" font-family="Century Schoolbook,Century Schoolbook_MSFontService,sans-serif" font-weight="400" font-size="83" transform="matrix(1 0 0 1 1739.98 1710)">ms</text><text fill="#ED7D31" font-family="Century Schoolbook,Century Schoolbook_MSFontService,sans-serif" font-weight="400" font-size="83" transform="matrix(1 0 0 1 1723.61 925)">Intensity [p/b]</text><text fill="#4472C4" font-family="Century Schoolbook,Century Schoolbook_MSFontService,sans-serif" font-weight="400" font-size="83" transform="matrix(1 0 0 1 2362.05 1547)">LSA function</text><path d="M1314.88 865 1314.88 925.906 1301.13 925.906 1301.12 865ZM1328.63 919.031 1308 960.281 1287.38 919.031Z" fill="#ED7D31"/><text fill="#ED7D31" font-family="Century Schoolbook,Century Schoolbook_MSFontService,sans-serif" font-weight="400" font-size="83" transform="matrix(1 0 0 1 1163.43 824)">Injection </text><text fill="#548235" font-family="Century Schoolbook,Century Schoolbook_MSFontService,sans-serif" font-weight="400" font-size="83" transform="matrix(1 0 0 1 2488.56 654)">p [GeV/c]</text></g></svg>